<svg width="177" height="49" viewBox="0 0 177 49" fill="none" xmlns="http://www.w3.org/2000/svg">
<path d="M176.206 24.4326C176.206 21.8034 174.807 19.5112 172.359 17.5562C174.807 15.8034 176.206 13.7135 176.206 11.3539C176.206 5.08427 165.713 0.5 151.863 0.5C149.695 0.5 147.106 0.702247 145.008 0.97191L143.679 4.3427C145.567 4.00562 149.135 3.66854 151.863 3.66854C163.475 3.66854 172.988 7.30899 172.988 11.3539C172.988 12.9045 171.729 14.3876 169.491 15.6685C166.833 14.2528 163.545 13.2416 159.837 12.5674L161.656 7.98315H158.368L156.69 12.1629C155.151 12.0281 153.472 11.9607 151.863 11.9607C142.56 11.9607 136.334 13.9157 136.334 17.4888C136.334 20.7921 142.35 22.4775 151.863 22.4775C152.143 22.4775 152.353 22.4775 152.563 22.4775L150.884 26.7247C141.86 26.8596 136.334 28.4775 136.334 31.5787C136.334 34.4775 140.321 36.3652 146.757 36.9719L145.078 41.1517H148.366L149.974 37.1742C150.604 37.1742 151.234 37.1742 151.863 37.1742C158.858 37.1742 165.084 35.7584 169.491 33.3315C171.659 34.5449 172.988 35.9607 172.988 37.4438C172.988 41.6236 163.545 45.3989 151.863 45.3989C148.715 45.3989 146.267 45.1966 143.609 44.7921L142.49 47.6236C145.358 48.2978 149.345 48.5 151.933 48.5C165.783 48.5 176.276 43.8483 176.276 37.3764C176.276 35.0843 174.877 33.0618 172.429 31.309C174.807 29.4888 176.206 27.1292 176.206 24.4326ZM139.552 17.4213C139.552 16.2079 145.707 15.0618 151.793 15.0618C153.052 15.0618 154.241 15.1292 155.431 15.1966L154.381 17.8258H157.669L158.578 15.6011C161.167 16.0056 163.475 16.6124 165.503 17.3539C161.796 18.5674 157.039 19.309 151.793 19.309C145.707 19.309 139.552 18.3652 139.552 17.4213ZM151.863 34.1404C145.777 34.1404 139.622 32.8596 139.622 31.6461C139.622 30.9045 144.378 30.0955 149.625 29.9607L148.575 32.6573H151.863L152.982 29.9607C157.809 30.0281 162.216 30.7697 165.643 31.8483C161.866 33.264 157.109 34.1404 151.863 34.1404ZM169.351 29.8258C165.434 28.073 160.187 26.9944 154.171 26.7921L155.92 22.3427C161.236 22.0056 165.853 20.8596 169.351 19.309C171.589 20.7921 172.918 22.6124 172.918 24.5C172.918 26.3876 171.589 28.2753 169.351 29.8258Z" fill="#0068FF"/>
<path d="M12.1015 21.3313C13.7803 20.2527 14.4798 18.7695 14.4798 17.2864C14.4798 14.1178 12.1015 11.8257 7.83448 11.8257H1.88867C0.839409 11.8931 0 12.6347 0 13.6459V29.7583C0 30.8369 0.839409 31.5785 1.88867 31.5785H8.39409C12.801 31.5785 15.4591 29.1515 15.4591 25.983C15.3892 23.9605 14.3399 22.2751 12.1015 21.3313ZM3.28768 14.6571H7.69458C9.93301 14.6571 11.1222 15.938 11.1222 17.4886C11.1222 18.9718 9.93301 20.2527 7.69458 20.2527H3.28768V14.6571ZM8.46404 28.8145H3.28768V22.9493H8.46404C10.7724 22.9493 12.1015 24.2302 12.1015 25.8482C12.1015 27.5336 10.7724 28.8145 8.46404 28.8145Z" fill="#0068FF"/>
<path d="M34.6253 28.4102C33.576 28.8147 32.4568 29.0843 31.1277 29.0843C28.6095 29.0843 27.6302 27.5338 27.6302 25.309V17.4214H24.4824V25.309C24.4824 29.6911 27.2105 31.7809 31.1977 31.7809C33.0864 31.7809 35.1149 31.3764 37.0736 30.2304C37.5632 29.9607 37.913 29.2866 37.913 28.6124V17.4214H34.6253V28.4102Z" fill="#0068FF"/>
<path d="M20.6353 27.5339V12.0283H17.3477V27.9384C17.3477 30.4328 18.8166 31.7811 21.3348 31.7811C21.9644 31.7811 23.0137 31.6463 23.0137 31.6463V28.9497C22.6639 28.9497 22.3142 29.0171 22.0344 29.0171C21.055 29.0171 20.6353 28.4103 20.6353 27.5339Z" fill="#0068FF"/>
<path d="M47.0764 17.2866C42.8094 17.2866 39.9414 20.1855 39.9414 24.5001C39.9414 29.2192 42.6695 31.8484 47.4261 31.8484C49.2449 31.8484 51.2734 31.4439 52.5325 30.7024V28.0731C51.0636 28.8147 49.2449 29.2192 47.4261 29.2192C44.9779 29.2192 43.5788 28.1406 43.2291 26.0507H52.1828C52.9522 26.0507 53.4419 25.4439 53.4419 24.5675V23.6237C53.5118 19.781 50.9237 17.2866 47.0764 17.2866ZM43.1591 23.4889C43.369 21.1293 44.6981 19.8484 47.0064 19.8484C49.1749 19.8484 50.504 21.0619 50.504 23.4889H43.1591Z" fill="#0068FF"/>
<path d="M94.1538 17.2866C91.7055 17.2866 89.607 18.0956 88.2779 18.8372C87.7882 19.1068 87.4385 19.781 87.4385 20.4552V31.5788H90.6562V20.6574C91.5656 20.2529 92.8946 19.9833 94.0138 19.9833C96.1823 19.9833 97.6513 21.0619 97.6513 23.7585V31.5788H100.939V23.7585C100.869 19.8484 98.7006 17.2866 94.1538 17.2866Z" fill="#0068FF"/>
<path d="M113.32 17.4214L109.683 23.1517H108.913L105.346 17.4214H101.988L106.395 24.5L102.268 31.5787H105.696L108.913 26.1854H109.683L112.971 31.5787H116.468L112.271 24.5L116.748 17.4214H113.32Z" fill="#0068FF"/>
<path d="M67.4325 21.3313C69.1114 20.2527 69.8109 18.7695 69.8109 17.2864C69.8109 14.1178 67.3626 11.8257 63.1655 11.8257H57.2197C56.1005 11.8257 55.3311 12.5673 55.3311 13.5785V29.6909C55.3311 30.7695 56.1005 31.5111 57.2197 31.5111H63.7252C68.0621 31.5111 70.7202 29.0841 70.7202 25.9156C70.7202 23.9605 69.601 22.2751 67.4325 21.3313ZM58.6187 14.6571H62.9557C65.1941 14.6571 66.3833 15.938 66.3833 17.4886C66.3833 18.9718 65.1941 20.2527 62.9557 20.2527H58.5488V14.6571H58.6187ZM63.7951 28.8144H58.6187V22.9493H63.7951C66.1035 22.9493 67.3626 24.2302 67.3626 25.8482C67.3626 27.5336 66.1035 28.8144 63.7951 28.8144Z" fill="#0068FF"/>
<path d="M79.1145 17.2866C74.8475 17.2866 71.9795 20.1855 71.9795 24.5001C71.9795 29.2192 74.7076 31.8484 79.4642 31.8484C81.2829 31.8484 83.3115 31.4439 84.5706 30.7024V28.0731C83.1017 28.8147 81.2829 29.2192 79.4642 29.2192C77.0159 29.2192 75.6169 28.1406 75.2672 26.0507H84.2209C84.9903 26.0507 85.48 25.4439 85.48 24.5675V23.6237C85.6199 19.781 83.0317 17.2866 79.1145 17.2866ZM75.2672 23.4889C75.477 21.1293 76.8061 19.8484 79.1145 19.8484C81.2829 19.8484 82.612 21.0619 82.612 23.4889H75.2672Z" fill="#0068FF"/>
</svg>
